<svg xmlns="http://www.w3.org/2000/svg" width="64" height="64" viewBox="0 0 400 400"><circle cx="200" cy="200" r="200" fill="#00b22d"/><g fill="#fff"><path d="M364 163c0-7-5-12-11-12-7 0-12 5-12 12 0 6 5 12 12 12 6 0 11-6 11-12zm-11 8c-5 0-8-3-8-8s3-9 8-9c4 0 8 4 8 9s-4 8-8 8z"/><path d="M356 164c0-1 2-1 2-3 0-3-2-4-4-4h-6v11h4v-3h1l1 3h4l-2-4zm-3-2h-1v-3h1l1 2-1 1z"/><circle cx="104.6" cy="163" r="9"/><path d="M114 178H73v-3c0-5 5-5 8-5h4v-14l-6-1c-9 0-25 3-25 21v2h-7v14h7v28h-7v14h34v-14h-8v-28h22v28h-7v14h33v-14h-7zm70 0h-29v13h5l-7 20-1 8h-1l-1-8-7-20h5v-13h-29v13h6l15 42h22l16-42h6zm55 25c0-15-10-26-26-26-18 0-29 12-29 29 0 14 11 29 30 29 15 0 24-8 24-8l-7-13s-7 5-15 5c-6 0-12-3-13-10h35l1-6zm-36-4c1-4 4-8 9-8 4 0 7 3 7 8zm114-8 1-3v-3c0-5-3-7-8-7h-18v13h5c2 0 3 1 3 3v26h-8v14h34v-14h-8v-8c0-10 5-17 16-17l3 1v-19h-2c-8 0-15 6-17 14zm-49 0v-6c0-5-3-7-8-7h-17v13h5c2 0 2 1 2 3v26h-7v14h34v-14h-8v-8c0-10 5-17 15-17l4 1v-19h-2c-8 0-15 6-18 14z"/></g></svg>