<?xml version="1.0" encoding="UTF-8" standalone="no"?><!--License: MIT. Made by joypixels: https://github.com/joypixels/emojione--><svg width="800px" height="800px" viewBox="0 0 64 64" aria-hidden="true" role="img" class="iconify iconify--emojione-monotone" preserveAspectRatio="xMidYMid meet" version="1.1" id="svg6" sodipodi:docname="AstroSharkLogo.svg" inkscape:version="1.3 (0e150ed, 2023-07-21)" xmlns:inkscape="http://www.inkscape.org/namespaces/inkscape" xmlns:sodipodi="http://sodipodi.sourceforge.net/DTD/sodipodi-0.dtd" xmlns="http://www.w3.org/2000/svg" xmlns:svg="http://www.w3.org/2000/svg"><defs id="defs6" /><sodipodi:namedview id="namedview6" pagecolor="#ffffff" bordercolor="#000000" borderopacity="0.25" inkscape:showpageshadow="2" inkscape:pageopacity="0.0" inkscape:pagecheckerboard="0" inkscape:deskcolor="#d1d1d1" inkscape:zoom="0.475" inkscape:cx="432.63158" inkscape:cy="454.73684" inkscape:window-width="1392" inkscape:window-height="1027" inkscape:window-x="395" inkscape:window-y="25" inkscape:window-maximized="0" inkscape:current-layer="svg6" /><rect style="display:inline;fill:#fdebf3;fill-opacity:1;fill-rule:evenodd;stroke-width:0.16;stroke-dasharray:0.16, 0.16" id="rect1" width="62.746326" height="62.865417" x="0.64726675" y="0.6268338" inkscape:label="rect1" ry="16.474913" /><path d="M 54.861,37.949 C 62.588,30.631 62.284,23.734 61.777,21.062 61.15,17.757 59.306,15.179 56.808,14.078 55.828,10.08 51.032,8.799 50.822,8.742 l -1.699,-0.436 0.9,1.512 c 0.026,0.047 2.719,4.648 1.616,9.127 l -0.372,1.51 1.391,-0.684 c 1.132,-0.559 2.089,-1.396 2.404,-1.691 0.291,-0.063 0.852,0.252 1.248,0.838 0.236,0.35 0.918,1.568 -0.246,2.598 -0.896,0.795 -3.502,-0.066 -6.26,-0.979 -2.507,-0.828 -5.318,-1.758 -8.159,-2 1.118,-5.662 2.968,-11.193 2.987,-11.252 L 45.064,6 43.76,6.354 C 33.012,9.262 27.688,16.678 25.413,21.025 12.463,25.326 2,34.068 2,37.555 c 0,3.717 8.61,10.752 13.161,10.752 0.45,0 0.864,-0.066 1.231,-0.197 1.249,-0.443 2.482,-1.01 3.691,-1.646 -1.313,3.695 -1.869,6.92 -1.886,7.025 l -0.062,0.02 1.287,0.822 c 1.505,0.961 3.426,1.449 5.71,1.449 h 10e-4 c 6.426,-0.002 15.037,-3.881 21.553,-9.678 7.561,2.127 13.187,9.67 13.243,9.746 L 61.512,58 61.229,55.34 c -0.057,-0.535 -1.4,-12.68 -6.368,-17.391 m -34.563,10.815 3.109,2.801 -0.095,-0.973 c -0.133,-1.236 -0.281,-2.859 -0.281,-2.859 l 3.033,2.607 c -1.589,0.826 -3.359,1.588 -5.311,2.283 -0.073,-0.586 -0.313,-2.531 -0.455,-3.859 m 1.058,-1.43 -0.979,-1.031 c 0.306,-0.164 0.612,-0.324 0.914,-0.5 -0.021,0.049 -0.045,0.102 -0.065,0.152 l 0.13,1.379 m 1.461,-2.459 c 0.377,-0.24 0.747,-0.49 1.115,-0.74 l 0.36,1.959 -1.475,-1.219 m 9.966,-8.186 c 0.52,-0.521 0.988,-1.006 1.415,-1.455 l 0.536,3.502 -1.951,-2.047 m 2.922,3.672 a 11.4,11.4 0 0 1 -0.406,1.119 c -0.209,0.492 -0.459,0.971 -0.733,1.441 l -1.304,-3.662 2.443,1.102 m -1.514,3.17 a 15.68,15.68 0 0 1 -1.933,2.391 l -1.172,-3.889 3.105,1.498 M 30.63,38.754 c 0.44,-0.404 0.866,-0.805 1.267,-1.193 l 0.469,2.572 -1.736,-1.379 m 1.104,7.684 a 21.289,21.289 0 0 1 -2.329,1.887 l -0.708,-3.791 3.037,1.904 m -3.632,-5.465 c 0.43,-0.357 0.848,-0.717 1.254,-1.072 l 0.52,2.711 -1.774,-1.639 m 0.881,7.646 a 28.423,28.423 0 0 1 -2.437,1.471 l -0.57,-3.773 3.007,2.302 m -3.576,-5.531 a 50.28,50.28 0 0 0 1.215,-0.924 l 0.346,2.385 -1.561,-1.461 m -0.274,11.24 c -1.287,0 -2.432,-0.17 -3.422,-0.506 7.805,-2.863 12.822,-6.828 14.928,-11.801 2.319,-5.475 0.173,-10.078 0.08,-10.271 l -0.488,-1.02 -0.719,0.871 c -0.096,0.115 -9.653,11.602 -19.603,15.141 a 2.227,2.227 0 0 1 -0.749,0.113 c -3.782,0 -11.224,-6.256 -11.693,-9.039 0.879,-0.436 4.326,-1.135 8.833,-1.135 2.574,0 6.354,0.24 9.743,1.383 a 6.777,6.777 0 0 0 2.176,0.377 c 3.997,0 6.407,-3.994 8.344,-7.205 1.201,-1.99 2.443,-4.049 3.515,-4.049 0.088,0 0.174,0.012 0.266,0.037 1.398,0.398 1.846,2.928 2.363,5.857 0.781,4.412 1.74,9.834 6.502,12.395 -6.126,5.247 -14.242,8.85 -20.076,8.852 M 46.772,44.611 C 41.861,42.609 40.94,37.414 40.129,32.828 39.526,29.418 39.005,26.474 36.736,25.83 a 2.37,2.37 0 0 0 -0.659,-0.094 c -1.887,0 -3.214,2.201 -4.75,4.748 -1.841,3.051 -3.926,6.506 -7.108,6.506 A 5.413,5.413 0 0 1 22.504,36.689 C 18.928,35.484 14.982,35.232 12.3,35.232 c -0.074,0 -5.302,0.051 -8.281,0.891 C 6.284,32.641 15.077,25.92 26.141,22.312 l 0.284,-0.092 0.136,-0.268 c 1.998,-3.918 6.72,-10.766 16.283,-13.818 -0.637,2.047 -1.854,6.199 -2.662,10.383 -7.675,0.246 -11.974,2.99 -11.972,2.992 0,0 5.634,-1.479 12.466,-1.576 l 0.08,0.004 c 2.918,0.102 5.936,1.1 8.598,1.979 3.436,1.135 6.147,2.031 7.666,0.689 1.527,-1.352 1.345,-3.236 0.485,-4.504 -0.85,-1.254 -2.183,-1.797 -3.167,-1.289 l -0.174,0.127 c -0.006,0.004 -0.345,0.334 -0.854,0.719 0.234,-2.719 -0.541,-5.252 -1.205,-6.854 1.322,0.674 3.016,1.908 3.363,3.924 l 0.07,0.412 0.391,0.145 c 2.178,0.811 3.875,3.129 4.428,6.049 0.466,2.453 0.706,8.84 -6.686,15.729 -1.436,-0.143 -3.658,0.314 -3.658,0.314 1.146,0 2.168,0.375 3.089,0.99 l 0.231,0.178 c 3.648,2.797 5.4,10.438 6.089,14.438 C 57.09,50.406 52.5,46.109 46.772,44.611" fill="#000000" id="path1" style="display:inline;fill:#00000a;fill-opacity:1;stroke:#2048d4;stroke-width:0;stroke-dasharray:none;stroke-opacity:1;stroke-dashoffset:0.80000001" /><path d="m 21.444,26.131 c -2.916,2.234 -2.727,4.498 -5.293,5.191 0,0 3.303,0.678 5.326,-1.777 a 3.177,3.177 0 0 0 3.103,2.52 3.184,3.184 0 0 0 1.093,-6.173 c 1.316,-0.396 2.821,-0.477 4.54,-0.566 -0.001,-0.002 -5.851,-1.431 -8.769,0.805" fill="#000000" id="path2" style="display:none;fill:#a1e236;fill-opacity:1" /><path d="m 44.67,21.852 c 1.244,1.195 0.372,3.248 0.105,4.273 -0.262,1.012 -1.58,1.863 -1.58,1.863 1.037,-0.207 1.908,-0.215 2.553,-2.703 0.645,-2.482 -1.078,-3.433 -1.078,-3.433" fill="#000000" id="path3" style="display:none;fill:#a583f1;fill-opacity:1" /><path d="m 46.83,22.783 c 1.139,1.309 0.101,3.271 -0.25,4.26 -0.348,0.986 -1.734,1.709 -1.734,1.709 1.051,-0.107 1.918,-0.031 2.769,-2.447 0.856,-2.412 -0.785,-3.522 -0.785,-3.522" fill="#000000" id="path4" style="display:none;fill:#a583f1;fill-opacity:1" /><path d="m 48.746,23.492 c 1.174,1.277 0.18,3.271 -0.143,4.27 -0.32,0.996 -1.682,1.758 -1.682,1.758 1.043,-0.137 1.915,-0.088 2.701,-2.527 0.79,-2.438 -0.876,-3.501 -0.876,-3.501" fill="#000000" id="path5" style="display:none;fill:#a583f1;fill-opacity:1" /><path d="m 15.142,38.447 c 0.924,0.309 0.542,1.242 1.626,1.242 1.086,0 1.806,-0.83 1.215,-1.256 -1.338,-0.958 -2.841,0.014 -2.841,0.014" fill="#000000" id="path6" style="display:none;fill:#a583f1;fill-opacity:1" /><path style="display:inline;fill:#000000;fill-opacity:1;fill-rule:evenodd;stroke:#0095ce;stroke-width:0;stroke-dasharray:none;stroke-dashoffset:0;stroke-opacity:1" d="M 716.19792,634.54588 C 680.38436,600.11274 638.3284,574.13684 593.9099,559.01455 567.43865,550.0024 551.90682,538.52844 537.5395,517.3716 521.50602,493.76129 513.83434,469.80002 502.0448,406.50964 c -11.65625,-62.57473 -21.6121,-80.84915 -46.5661,-85.4741 -18.47767,-3.42463 -35.43617,11.66918 -62.70091,55.80657 -48.38924,78.33467 -68.95048,92.51844 -115.04065,79.35852 -47.15749,-13.46465 -80.64389,-17.1956 -138.78977,-15.46358 -24.31579,0.7243 -52.727246,2.68017 -63.13657,4.34636 -10.409322,1.66617 -19.278452,2.67701 -19.709178,2.24628 -3.508119,-3.50811 39.170212,-42.92146 71.666678,-66.184 48.92998,-35.02645 120.51883,-72.84485 174.18787,-92.0186 24.00762,-8.57694 28.77076,-11.01721 31.57895,-16.17861 1.81884,-3.343 10.5432,-17.09768 19.38747,-30.56596 26.15297,-39.82644 56.85583,-70.88364 96.23368,-97.34432 30.75306,-20.66508 86.83209,-46.710873 83.85201,-38.94489 -3.25973,8.49468 -21.03123,75.07192 -26.19049,98.11722 l -5.89145,26.31579 -11.51579,0.54736 c -21.42581,1.0184 -56.2219,6.86968 -79.16792,13.3128 -21.92156,6.15547 -59.39143,21.90331 -57.23852,24.05623 0.57,0.56998 9.95619,-0.80575 20.85823,-3.05718 48.6921,-10.05564 106.49644,-15.91216 139.82187,-14.16622 26.88078,1.40831 49.7623,6.69005 102.10527,23.56896 43.34427,13.97712 64.74452,18.57991 77.89473,16.7537 34.53463,-4.79595 45.58482,-48.60147 18.67813,-74.04442 -12.9543,-12.24958 -24.28922,-14.11859 -36.27907,-5.98205 l -7.66222,5.19971 v -9.13446 c 0,-12.35365 -5.54511,-43.34224 -10.24884,-57.27517 -2.10897,-6.24702 -3.4417,-11.35821 -2.96162,-11.35821 0.48009,0 5.12377,2.92469 10.31931,6.49931 13.73475,9.44976 23.32195,23.66195 26.85926,39.81648 0.84103,3.84092 3.80676,6.3461 10.97501,9.27071 13.21067,5.38988 30.53116,23.17257 38.48013,39.50696 9.64739,19.82449 13.0613,35.63208 13.10833,60.69601 0.0949,50.54181 -23.39126,102.95266 -66.84128,149.16076 l -16.5324,17.58183 -15.31065,0.95712 c -8.42087,0.52642 -19.3156,1.68116 -24.21053,2.56608 l -8.89987,1.60895 11.09793,2.47118 c 38.40893,8.55253 64.03308,40.87284 86.73868,109.40552 7.95198,24.00157 19.85968,72.84734 18.58631,76.24162 -0.3484,0.92869 -10.87071,-8.15411 -23.3829,-20.18402 z M 329.54674,394.9384 c 21.84686,-14.45758 24.64863,-43.90093 5.95625,-62.5933 -4.66699,-4.66699 -8.05324,-8.91765 -7.52501,-9.44588 0.52823,-0.52823 11.98804,-2.06257 25.46623,-3.40962 15.02865,-1.502 23.31211,-3.1172 21.4192,-4.17653 -7.05703,-3.94931 -49.41615,-6.52136 -66.83394,-4.05816 -31.21637,4.41456 -48.16065,15.79555 -71.35843,47.92943 -13.56103,18.7849 -22.54825,27.46541 -30.50296,29.46191 -8.4351,2.11708 -3.50385,5.03796 8.50544,5.03796 14.88683,0 35.52004,-6.60303 45.37127,-14.51968 l 7.93136,-6.37381 2.48067,5.98888 c 8.70899,21.02533 39.15495,29.35112 59.08992,16.1588 z m 275.71642,-30.52274 c 6.76817,-4.60124 16.22935,-23.1025 18.06128,-35.31875 1.6487,-10.99434 -1.31261,-22.81355 -7.77408,-31.02799 -5.85726,-7.4463 -6.92775,-5.88319 -2.77596,4.05343 3.75406,8.98476 3.0888,15.81169 -3.52177,36.14016 -3.18353,9.78985 -6.53692,15.12833 -13.58204,21.62231 -5.14514,4.74261 -9.3548,9.05343 -9.3548,9.5796 0,2.05705 13.97107,-1.6657 18.94737,-5.04876 z m -24.31861,-9.4144 c 7.6816,-5.03317 16.55979,-25.54446 17.42825,-40.26442 0.6043,-10.24246 -0.16682,-14.19337 -4.07692,-20.88896 -5.99184,-10.26026 -12.15895,-13.43818 -7.1024,-3.65986 4.40124,8.51105 4.20755,18.18937 -0.64636,32.2975 -6.2219,18.08427 -10.22562,24.46208 -19.78055,31.50979 l -8.87183,6.54387 9.02758,-1.13265 c 4.96516,-0.62295 11.27518,-2.60533 14.02223,-4.40527 z m -21.99718,-11.50741 c 7.6932,-5.67833 14.59482,-24.17221 14.67217,-39.31617 0.0712,-13.94398 -4.42124,-24.9081 -12.36783,-30.18443 l -4.7156,-3.13105 4.6445,8.9107 c 3.72497,7.14649 4.40575,11.07299 3.43855,19.83205 -2.14288,19.40629 -7.36478,32.63122 -16.31366,41.31581 -4.56802,4.43311 -8.3055,8.57863 -8.3055,9.21223 0,2.08337 13.57366,-2.67282 18.94737,-6.63914 z" id="path8" transform="scale(0.08)" /><path style="display:inline;fill:#000000;fill-opacity:1;fill-rule:evenodd;stroke:#0000ff;stroke-width:0;stroke-dasharray:none;stroke-dashoffset:0;stroke-opacity:1" d="m 285.34583,675.45712 -11.49627,-2.23529 17.81206,-7.16612 c 62.33672,-25.07922 114.3296,-61.18695 143.55945,-99.69838 12.74744,-16.7952 27.30428,-46.57166 32.44019,-66.35733 5.69864,-21.95349 5.24699,-62.06865 -0.94391,-83.83833 -2.57606,-9.05844 -6.67766,-20.37828 -9.11467,-25.1552 l -4.43091,-8.68529 -11.64676,13.57625 c -21.54631,25.11583 -85.52191,87.15599 -110.99869,107.64067 -45.74341,36.7801 -102.53224,70.85371 -132.77734,79.66712 -24.25989,7.06933 -78.87008,-22.5469 -121.959506,-66.14113 -19.230328,-19.45563 -32.77587,-39.86717 -28.977437,-43.6656 3.789246,-3.78924 41.575789,-10.17022 74.715093,-12.61706 51.31092,-3.78855 105.1004,1.50472 146.89392,14.45541 26.02971,8.0659 47.01472,7.80086 65.3459,-0.82532 25.07682,-11.8005 41.23514,-29.82218 73.26084,-81.70923 19.9075,-32.25354 36.56312,-51.64966 44.35198,-51.64966 7.40295,0 15.97657,10.93582 20.97236,26.75066 2.48484,7.86609 7.85562,32.10552 11.93505,53.86541 4.07941,21.75988 9.86366,47.33883 12.85385,56.8421 11.56171,36.74469 29.20613,64.27677 51.27708,80.01188 6.82412,4.86515 12.45859,9.50216 12.52103,10.30444 0.16103,2.06964 -26.84522,22.92242 -47.02531,36.31038 -44.21606,29.33404 -96.20663,53.00558 -141.96145,64.6357 -27.73164,7.04891 -66.50048,9.59329 -86.60655,5.68392 z M 220.91311,494.41736 c 5.65782,-2.57788 8.72641,-8.63738 6.3342,-12.50806 -1.897,-3.06942 -14.35755,-8.22509 -19.87889,-8.22509 -2.39017,0 -7.66522,1.38696 -11.72233,3.08213 -7.13308,2.98039 -7.25246,3.21317 -3.61659,7.05203 2.06798,2.18345 5.4086,6.00702 7.42358,8.49682 4.10062,5.06691 13.03277,5.94188 21.46003,2.10217 z" id="path9" transform="scale(0.08)" /></svg>